<svg xmlns="http://www.w3.org/2000/svg" width="1200" height="900" viewBox="0 0 1200 900"><defs><radialGradient id="g8" cx="0.3" cy="0.3" r="1"><stop offset="0" stop-color="#0f2417"/><stop offset="1" stop-color="#000000"/></radialGradient></defs><rect width="1200" height="900" fill="url(#g8)"/><line x1="0" y1="0" x2="0" y2="900" stroke="rgba(255,255,255,0.05)" stroke-width="1"/><line x1="120" y1="0" x2="120" y2="900" stroke="rgba(255,255,255,0.05)" stroke-width="1"/><line x1="240" y1="0" x2="240" y2="900" stroke="rgba(255,255,255,0.05)" stroke-width="1"/><line x1="360" y1="0" x2="360" y2="900" stroke="rgba(255,255,255,0.05)" stroke-width="1"/><line x1="480" y1="0" x2="480" y2="900" stroke="rgba(255,255,255,0.05)" stroke-width="1"/><line x1="600" y1="0" x2="600" y2="900" stroke="rgba(255,255,255,0.05)" stroke-width="1"/><line x1="720" y1="0" x2="720" y2="900" stroke="rgba(255,255,255,0.05)" stroke-width="1"/><line x1="840" y1="0" x2="840" y2="900" stroke="rgba(255,255,255,0.05)" stroke-width="1"/><line x1="960" y1="0" x2="960" y2="900" stroke="rgba(255,255,255,0.05)" stroke-width="1"/><line x1="1080" y1="0" x2="1080" y2="900" stroke="rgba(255,255,255,0.05)" stroke-width="1"/><line x1="1200" y1="0" x2="1200" y2="900" stroke="rgba(255,255,255,0.05)" stroke-width="1"/><line x1="0" y1="0" x2="1200" y2="0" stroke="rgba(255,255,255,0.05)" stroke-width="1"/><line x1="0" y1="120" x2="1200" y2="120" stroke="rgba(255,255,255,0.05)" stroke-width="1"/><line x1="0" y1="240" x2="1200" y2="240" stroke="rgba(255,255,255,0.05)" stroke-width="1"/><line x1="0" y1="360" x2="1200" y2="360" stroke="rgba(255,255,255,0.05)" stroke-width="1"/><line x1="0" y1="480" x2="1200" y2="480" stroke="rgba(255,255,255,0.05)" stroke-width="1"/><line x1="0" y1="600" x2="1200" y2="600" stroke="rgba(255,255,255,0.05)" stroke-width="1"/><line x1="0" y1="720" x2="1200" y2="720" stroke="rgba(255,255,255,0.05)" stroke-width="1"/><line x1="0" y1="840" x2="1200" y2="840" stroke="rgba(255,255,255,0.05)" stroke-width="1"/><circle cx="184.48487270793072" cy="688.8882872955295" r="179.28605139963972" fill="rgba(255,255,255,0.05)" opacity="0.6268699770379833"/><polygon points="792.6855168719477,62.00992015310965 723.0291922975571,201.32256930189078 862.3418414463383,201.32256930189078" fill="#c9ff3d" opacity="0.5016302206997527"/><rect x="934.2547935035878" y="653.3043587034381" width="255.0634797180507" height="255.0634797180507" fill="#c9ff3d" opacity="0.9345500465264532" transform="rotate(111.43725036406299 1061.7865333626132 780.8360985624635)"/><rect x="229.53539792542108" y="281.3104590117607" width="106.8449794641581" height="106.8449794641581" fill="#c9ff3d" opacity="0.7952080420437531" transform="rotate(89.34458212334535 282.9578876575001 334.73294874383976)"/><circle cx="190.85169631368427" cy="671.9309967966927" r="63.01842260302443" fill="rgba(255,255,255,0.05)" opacity="0.6772903882721242"/><rect x="270.5512347552771" y="129.27337114450296" width="267.38665093812267" height="267.38665093812267" fill="rgba(255,255,255,0.05)" opacity="0.8377432835836967" transform="rotate(236.71572239256218 404.24456022433844 262.9666966135643)"/></svg>