<svg xmlns="http://www.w3.org/2000/svg" width="1200" height="900" viewBox="0 0 1200 900"><defs><linearGradient id="g2" x1="0" y1="0" x2="1" y2="1"><stop offset="0" stop-color="#10202e"/><stop offset="1" stop-color="#0d0d0b"/></linearGradient></defs><rect width="1200" height="900" fill="url(#g2)"/><line x1="0" y1="0" x2="0" y2="900" stroke="rgba(255,255,255,0.04)" stroke-width="1"/><line x1="100" y1="0" x2="100" y2="900" stroke="rgba(255,255,255,0.04)" stroke-width="1"/><line x1="200" y1="0" x2="200" y2="900" stroke="rgba(255,255,255,0.04)" stroke-width="1"/><line x1="300" y1="0" x2="300" y2="900" stroke="rgba(255,255,255,0.04)" stroke-width="1"/><line x1="400" y1="0" x2="400" y2="900" stroke="rgba(255,255,255,0.04)" stroke-width="1"/><line x1="500" y1="0" x2="500" y2="900" stroke="rgba(255,255,255,0.04)" stroke-width="1"/><line x1="600" y1="0" x2="600" y2="900" stroke="rgba(255,255,255,0.04)" stroke-width="1"/><line x1="700" y1="0" x2="700" y2="900" stroke="rgba(255,255,255,0.04)" stroke-width="1"/><line x1="800" y1="0" x2="800" y2="900" stroke="rgba(255,255,255,0.04)" stroke-width="1"/><line x1="900" y1="0" x2="900" y2="900" stroke="rgba(255,255,255,0.04)" stroke-width="1"/><line x1="1000" y1="0" x2="1000" y2="900" stroke="rgba(255,255,255,0.04)" stroke-width="1"/><line x1="1100" y1="0" x2="1100" y2="900" stroke="rgba(255,255,255,0.04)" stroke-width="1"/><line x1="1200" y1="0" x2="1200" y2="900" stroke="rgba(255,255,255,0.04)" stroke-width="1"/><line x1="0" y1="0" x2="1200" y2="0" stroke="rgba(255,255,255,0.04)" stroke-width="1"/><line x1="0" y1="100" x2="1200" y2="100" stroke="rgba(255,255,255,0.04)" stroke-width="1"/><line x1="0" y1="200" x2="1200" y2="200" stroke="rgba(255,255,255,0.04)" stroke-width="1"/><line x1="0" y1="300" x2="1200" y2="300" stroke="rgba(255,255,255,0.04)" stroke-width="1"/><line x1="0" y1="400" x2="1200" y2="400" stroke="rgba(255,255,255,0.04)" stroke-width="1"/><line x1="0" y1="500" x2="1200" y2="500" stroke="rgba(255,255,255,0.04)" stroke-width="1"/><line x1="0" y1="600" x2="1200" y2="600" stroke="rgba(255,255,255,0.04)" stroke-width="1"/><line x1="0" y1="700" x2="1200" y2="700" stroke="rgba(255,255,255,0.04)" stroke-width="1"/><line x1="0" y1="800" x2="1200" y2="800" stroke="rgba(255,255,255,0.04)" stroke-width="1"/><line x1="0" y1="900" x2="1200" y2="900" stroke="rgba(255,255,255,0.04)" stroke-width="1"/><polygon points="326.70121162328525,564.8223634812605 262.34756738010947,693.5296519676122 391.054855866461,693.5296519676122" fill="#4dd6ff" opacity="0.6294896902423142"/><rect x="596.6038114428336" y="555.8740471571967" width="205.9463573387636" height="205.9463573387636" fill="rgba(255,255,255,0.06)" opacity="0.9365578819896853"/><polygon points="81.34696541683671, 149.46994324092844 255.55040448353063, 410.7940830521396 375.88659641803787, 441.3461022369546 331.7807176807607, 264.83340801911487 178.34217116848674, 433.4685271986909 70.33905752442172, 255.60067618814892 258.8607660805331, 384.3285815264451" fill="rgba(255,255,255,0.06)" opacity="0.6308175130834882"/><circle cx="704.7657654403087" cy="226.37428077470594" r="205.82535959006984" fill="#4dd6ff" opacity="0.6397277208788239"/><text x="60" y="110" font-family="Helvetica,Arial" font-weight="900" font-size="120" fill="rgba(255,255,255,0.12)">02</text></svg>