<svg xmlns="http://www.w3.org/2000/svg" width="1200" height="900" viewBox="0 0 1200 900"><defs><linearGradient id="g5" x1="0" y1="0" x2="1" y2="1"><stop offset="0" stop-color="#0f1f24"/><stop offset="1" stop-color="#0d0d0b"/></linearGradient></defs><rect width="1200" height="900" fill="url(#g5)"/><line x1="0" y1="0" x2="0" y2="900" stroke="rgba(255,255,255,0.04)" stroke-width="1"/><line x1="100" y1="0" x2="100" y2="900" stroke="rgba(255,255,255,0.04)" stroke-width="1"/><line x1="200" y1="0" x2="200" y2="900" stroke="rgba(255,255,255,0.04)" stroke-width="1"/><line x1="300" y1="0" x2="300" y2="900" stroke="rgba(255,255,255,0.04)" stroke-width="1"/><line x1="400" y1="0" x2="400" y2="900" stroke="rgba(255,255,255,0.04)" stroke-width="1"/><line x1="500" y1="0" x2="500" y2="900" stroke="rgba(255,255,255,0.04)" stroke-width="1"/><line x1="600" y1="0" x2="600" y2="900" stroke="rgba(255,255,255,0.04)" stroke-width="1"/><line x1="700" y1="0" x2="700" y2="900" stroke="rgba(255,255,255,0.04)" stroke-width="1"/><line x1="800" y1="0" x2="800" y2="900" stroke="rgba(255,255,255,0.04)" stroke-width="1"/><line x1="900" y1="0" x2="900" y2="900" stroke="rgba(255,255,255,0.04)" stroke-width="1"/><line x1="1000" y1="0" x2="1000" y2="900" stroke="rgba(255,255,255,0.04)" stroke-width="1"/><line x1="1100" y1="0" x2="1100" y2="900" stroke="rgba(255,255,255,0.04)" stroke-width="1"/><line x1="1200" y1="0" x2="1200" y2="900" stroke="rgba(255,255,255,0.04)" stroke-width="1"/><line x1="0" y1="0" x2="1200" y2="0" stroke="rgba(255,255,255,0.04)" stroke-width="1"/><line x1="0" y1="100" x2="1200" y2="100" stroke="rgba(255,255,255,0.04)" stroke-width="1"/><line x1="0" y1="200" x2="1200" y2="200" stroke="rgba(255,255,255,0.04)" stroke-width="1"/><line x1="0" y1="300" x2="1200" y2="300" stroke="rgba(255,255,255,0.04)" stroke-width="1"/><line x1="0" y1="400" x2="1200" y2="400" stroke="rgba(255,255,255,0.04)" stroke-width="1"/><line x1="0" y1="500" x2="1200" y2="500" stroke="rgba(255,255,255,0.04)" stroke-width="1"/><line x1="0" y1="600" x2="1200" y2="600" stroke="rgba(255,255,255,0.04)" stroke-width="1"/><line x1="0" y1="700" x2="1200" y2="700" stroke="rgba(255,255,255,0.04)" stroke-width="1"/><line x1="0" y1="800" x2="1200" y2="800" stroke="rgba(255,255,255,0.04)" stroke-width="1"/><line x1="0" y1="900" x2="1200" y2="900" stroke="rgba(255,255,255,0.04)" stroke-width="1"/><polygon points="378.9312377766437, 115.34736640143461 110.91769479649676, 163.4341481991081 411.51845551488714, 115.3396832836138 148.73521511695736, 60.65815482608036 133.4602266911284, 297.6142117022531 444.53805226155873, 283.3023662818523 312.2836338854462, 107.54840880203204" fill="rgba(255,255,255,0.06)" opacity="0.935944049435057"/><circle cx="1011.9346716140324" cy="707.5308769197653" r="226.33310587223588" fill="#3dff9e" opacity="0.47896258324709373"/><circle cx="1029.0714674860742" cy="168.24434740615754" r="157.19809266332277" fill="none" stroke="#3dff9e" stroke-width="6" opacity="0.8303010826286157"/><polygon points="243.25580591977229,297.22344214794623 107.28723096058124,569.1605920663284 379.2243808789633,569.1605920663284" fill="#3dff9e" opacity="0.8862165205426287"/><text x="60" y="110" font-family="Helvetica,Arial" font-weight="900" font-size="120" fill="rgba(255,255,255,0.12)">05</text></svg>