<svg xmlns="http://www.w3.org/2000/svg" width="1200" height="900" viewBox="0 0 1200 900"><defs><linearGradient id="g6" x1="0" y1="0" x2="1" y2="1"><stop offset="0" stop-color="#241018"/><stop offset="1" stop-color="#0d0d0b"/></linearGradient></defs><rect width="1200" height="900" fill="url(#g6)"/><line x1="0" y1="0" x2="0" y2="900" stroke="rgba(255,255,255,0.04)" stroke-width="1"/><line x1="100" y1="0" x2="100" y2="900" stroke="rgba(255,255,255,0.04)" stroke-width="1"/><line x1="200" y1="0" x2="200" y2="900" stroke="rgba(255,255,255,0.04)" stroke-width="1"/><line x1="300" y1="0" x2="300" y2="900" stroke="rgba(255,255,255,0.04)" stroke-width="1"/><line x1="400" y1="0" x2="400" y2="900" stroke="rgba(255,255,255,0.04)" stroke-width="1"/><line x1="500" y1="0" x2="500" y2="900" stroke="rgba(255,255,255,0.04)" stroke-width="1"/><line x1="600" y1="0" x2="600" y2="900" stroke="rgba(255,255,255,0.04)" stroke-width="1"/><line x1="700" y1="0" x2="700" y2="900" stroke="rgba(255,255,255,0.04)" stroke-width="1"/><line x1="800" y1="0" x2="800" y2="900" stroke="rgba(255,255,255,0.04)" stroke-width="1"/><line x1="900" y1="0" x2="900" y2="900" stroke="rgba(255,255,255,0.04)" stroke-width="1"/><line x1="1000" y1="0" x2="1000" y2="900" stroke="rgba(255,255,255,0.04)" stroke-width="1"/><line x1="1100" y1="0" x2="1100" y2="900" stroke="rgba(255,255,255,0.04)" stroke-width="1"/><line x1="1200" y1="0" x2="1200" y2="900" stroke="rgba(255,255,255,0.04)" stroke-width="1"/><line x1="0" y1="0" x2="1200" y2="0" stroke="rgba(255,255,255,0.04)" stroke-width="1"/><line x1="0" y1="100" x2="1200" y2="100" stroke="rgba(255,255,255,0.04)" stroke-width="1"/><line x1="0" y1="200" x2="1200" y2="200" stroke="rgba(255,255,255,0.04)" stroke-width="1"/><line x1="0" y1="300" x2="1200" y2="300" stroke="rgba(255,255,255,0.04)" stroke-width="1"/><line x1="0" y1="400" x2="1200" y2="400" stroke="rgba(255,255,255,0.04)" stroke-width="1"/><line x1="0" y1="500" x2="1200" y2="500" stroke="rgba(255,255,255,0.04)" stroke-width="1"/><line x1="0" y1="600" x2="1200" y2="600" stroke="rgba(255,255,255,0.04)" stroke-width="1"/><line x1="0" y1="700" x2="1200" y2="700" stroke="rgba(255,255,255,0.04)" stroke-width="1"/><line x1="0" y1="800" x2="1200" y2="800" stroke="rgba(255,255,255,0.04)" stroke-width="1"/><line x1="0" y1="900" x2="1200" y2="900" stroke="rgba(255,255,255,0.04)" stroke-width="1"/><polygon points="1003.1524256051796, 814.1312845304788 992.3584144517625, 910.3407094851503 1025.3103951493765, 635.2506023752711 861.7610704706376, 539.4868249232942 1068.5489921528253, 778.9922851309732 837.7706472862284, 829.3921021728507 859.5863253117695, 559.0582241129757" fill="rgba(255,255,255,0.06)" opacity="0.8064744864095609"/><circle cx="945.2499842435966" cy="158.18299792428434" r="107.60092687379904" fill="rgba(255,255,255,0.06)" opacity="0.5571184036852193"/><polygon points="814.418463245732,569.8266271403576 674.224599290388,850.2143550510456 954.612327201076,850.2143550510456" fill="#ff5ea8" opacity="0.6864864714722968"/><polygon points="369.77998603075025, 226.60829659004563 444.3733378870519, 58.48211762454757 274.3179870432612, 128.92174554134527 408.5539719252512, 102.4149199644283 212.20426027407976, 160.8865030290968 279.95010996072017, 111.15502013925327 229.63180094490576, 299.6844804046691" fill="#ff5ea8" opacity="0.6835123340183374"/><text x="60" y="110" font-family="Helvetica,Arial" font-weight="900" font-size="120" fill="rgba(255,255,255,0.12)">06</text></svg>